<?xml version="1.0" encoding="UTF-8" standalone="no"?>
<svg
   xmlns:dc="http://purl.org/dc/elements/1.1/"
   xmlns:cc="http://creativecommons.org/ns#"
   xmlns:rdf="http://www.w3.org/1999/02/22-rdf-syntax-ns#"
   xmlns:svg="http://www.w3.org/2000/svg"
   xmlns="http://www.w3.org/2000/svg"
   xmlns:xlink="http://www.w3.org/1999/xlink"
   version="1.1"
   id="svg2"
   viewBox="0 0 910.05273 331.56928"
   height="331.56927"
   width="910.05273">
  <defs
     id="defs4">
    <linearGradient
       id="linearGradient4388">
      <stop
         id="stop4390"
         offset="0"
         style="stop-color:#a96b0a;stop-opacity:1" />
      <stop
         id="stop4392"
         offset="1"
         style="stop-color:#f5b857;stop-opacity:1" />
    </linearGradient>
    <linearGradient
       id="linearGradient4380">
      <stop
         id="stop4382"
         offset="0"
         style="stop-color:#f093fb;stop-opacity:1" />
      <stop
         id="stop4384"
         offset="1"
         style="stop-color:#f5576c;stop-opacity:1" />
    </linearGradient>
    <linearGradient
       gradientUnits="userSpaceOnUse"
       y2="561.5769"
       x2="1110"
       y1="561.5769"
       x1="261.42856"
       id="linearGradient4386"
       xlink:href="#linearGradient4380" />
    <linearGradient
       gradientTransform="translate(0,15.071213)"
       gradientUnits="userSpaceOnUse"
       y2="54.469532"
       x2="973.95764"
       y1="54.469532"
       x1="397.47089"
       id="linearGradient4394"
       xlink:href="#linearGradient4388" />
    <filter
       height="1.4150615"
       y="-0.20753074"
       width="1.5690273"
       x="-0.28451365"
       id="filter4788"
       style="color-interpolation-filters:sRGB">
      <feGaussianBlur
         id="feGaussianBlur4790"
         stdDeviation="61.791187" />
    </filter>
  </defs>
  <metadata
     id="metadata7">
    <rdf:RDF>
      <cc:Work
         rdf:about="">
        <dc:format>image/svg+xml</dc:format>
        <dc:type
           rdf:resource="http://purl.org/dc/dcmitype/StillImage" />
        <dc:title></dc:title>
      </cc:Work>
    </rdf:RDF>
  </metadata>
  <g
     transform="translate(-144.97364,62.008826)"
     id="layer1">
    <g
       id="g4960"
       transform="matrix(0.40896753,0,0,0.40896753,-221.87989,-4.1174114)">
      <g
         id="g4360"
         transform="matrix(0.67676767,0,0,0.67676767,720.09722,-125.75199)">
        <path
           id="path4356"
           d="m 407.47188,147.29118 0,-160.6433 92.74747,160.6433 92.74746,-160.6433 92.74746,160.6433 92.74746,-160.6433 92.74746,160.6433 92.74746,-160.6433 0,160.6433"
           style="fill:url(#linearGradient4394);fill-opacity:1;fill-rule:evenodd;stroke:#ffffff;stroke-width:19.99930382;stroke-linecap:round;stroke-linejoin:round;stroke-miterlimit:4;stroke-dasharray:none;stroke-opacity:1" />
        <rect
           ry="168.57143"
           rx="168.57143"
           y="147.29118"
           x="271.42856"
           height="828.57141"
           width="828.57141"
           id="rect4332"
           style="opacity:1;fill:url(#linearGradient4386);fill-opacity:1;stroke:#ffffff;stroke-width:20;stroke-linecap:square;stroke-miterlimit:4;stroke-dasharray:none;stroke-opacity:1" />
        <g
           id="g4792">
          <path
             style="opacity:1;fill:#000000;fill-opacity:1;fill-rule:evenodd;stroke:none;stroke-width:5.17781353;stroke-linecap:butt;stroke-linejoin:miter;stroke-miterlimit:4;stroke-dasharray:none;stroke-opacity:1;filter:url(#filter4788)"
             d="m 546.58857,311.73606 c -49.0716,-0.35207 -100.87054,26.87436 -124.34961,87.28125 81.96161,-103.1668 162.50539,-97.82198 232.33398,-9.0918 -12.5696,-49.90725 -58.91277,-77.83739 -107.98437,-78.18945 z m 272.53711,0 c -49.0716,0.35206 -95.41477,28.2822 -107.98438,78.18945 69.82859,-88.73018 150.37238,-94.075 232.33399,9.0918 -23.47908,-60.40689 -75.27801,-87.63332 -124.34961,-87.28125 z m -292.88281,47.16601 c -43.03789,-0.34274 -82.95256,17.49919 -92.89454,59.72071 45.35768,-55.95803 143.66846,-18.93411 181.42969,24.28515 23.89904,27.35342 40.69584,-6.0378 27.14258,-28.57226 -20.50853,-34.09872 -69.86322,-55.06875 -115.67773,-55.4336 z m 313.22851,0 c -45.81452,0.36485 -95.1692,21.33488 -115.67773,55.4336 -13.55326,22.53446 3.24353,55.92568 27.14257,28.57226 37.76123,-43.21926 136.07201,-80.24318 181.42969,-24.28515 -9.94198,-42.22152 -49.85665,-60.06345 -92.89453,-59.72071 z m -192.19727,105.73047 -4.60937,1.9375 0.96875,2.30469 c 14.74451,35.05039 12.99585,62.77439 6.86719,90.1875 -6.12866,27.41312 -16.80528,54.44611 -19.55274,87.20703 -1.31882,15.72569 4.43432,26.2351 14.42969,30.91016 3.14176,1.46947 6.63285,2.87123 10.39844,3.96289 -13.59692,6.67981 -26.65086,17.9571 -38.57813,33.04101 -84.76997,15.44435 -92.60095,-23.60984 -116.16797,-51.51758 l -18.18359,1.00977 c 33.32507,67.62474 27.55149,88.90697 158.5957,86.87305 l 41.41602,-44.44532 41.41601,44.44532 c 131.04422,2.03392 125.26869,-19.24831 158.59376,-86.87305 l -18.1836,-1.00977 c -23.56702,27.90774 -31.39604,66.96193 -116.16601,51.51758 -11.57898,-15.77958 -23.74982,-26.56621 -36.10938,-32.93554 3.91309,-1.1067 7.54054,-2.54896 10.78906,-4.06836 9.99536,-4.67506 15.74656,-15.18446 14.42774,-30.91016 -2.74746,-32.76091 -13.42408,-59.79392 -19.55274,-87.20703 -6.12866,-27.41311 -7.87732,-55.13517 6.86719,-90.18555 l 0.96875,-2.30469 -4.60742,-1.93945 -0.9707,2.30469 c -15.16913,36.05979 -13.38045,65.28896 -7.13672,93.2168 6.24374,27.92784 16.77319,54.6241 19.44922,86.5332 1.20977,14.42539 -3.39397,22.14135 -11.56446,25.96289 -4.37285,2.04528 -9.98069,4.23913 -16.38867,5.19141 -13.72154,-5.03071 -27.57213,-4.7916 -41.01367,-0.0332 -6.32231,-0.96791 -11.85554,-3.13477 -16.18164,-5.1582 -8.17049,-3.82154 -12.77423,-11.5375 -11.56445,-25.96289 2.67602,-31.9091 13.20547,-58.60733 19.44921,-86.53516 6.24373,-27.92784 8.03241,-57.15505 -7.13671,-93.21484 l -0.96876,-2.30469 z m -126.84765,5.32227 c -21.03107,0.24694 -38.99663,7.23563 -52.73047,18.96484 18.83302,25.30563 137.25309,22.74452 134.34961,9.0918 -30.01195,-19.95632 -57.78393,-28.33651 -81.61914,-28.05664 z m 324.86133,0 c -23.83521,-0.27987 -51.60719,8.10032 -81.61914,28.05664 -2.90348,13.65272 115.51659,16.21383 134.34961,-9.0918 -13.73384,-11.72921 -31.69941,-18.7179 -52.73047,-18.96484 z M 566.20771,765.7634 c -0.13013,7.43837 25.74762,13.25119 116.65039,15 90.90277,-1.74881 116.78052,-7.56163 116.65039,-15 -14.41233,7.34285 -69.81073,5.57805 -116.65039,5.71484 -46.83966,-0.13679 -102.23806,1.62801 -116.65039,-5.71484 z m 71.63281,47.13281 c -0.54738,-0.0167 -1.03651,0.0769 -1.44922,0.28321 l 2.9336,0 c -0.52688,-0.1613 -1.02974,-0.26935 -1.48438,-0.28321 z m 1.48438,0.28321 c 8.98837,2.7518 27.11562,26.51656 7.84961,56.85742 -14.67047,23.10364 32.58076,134.69136 35.68359,153.75396 3.10283,-19.0626 50.35406,-130.65032 35.68359,-153.75396 -19.26601,-30.34086 -1.13877,-54.10562 7.84961,-56.85742 l -43.5332,0 -43.5332,0 z m 87.0664,0 2.9336,0 c -0.7555,-0.37775 -1.77237,-0.35551 -2.9336,0 z m -43.5332,210.61138 c -0.20734,1.2738 -0.21859,2.1358 0,2.5293 0.2186,-0.3935 0.20735,-1.2555 0,-2.5293 z"
             id="path4222" />
          <path
             id="path4406"
             d="m 546.58857,311.73606 c -49.0716,-0.35207 -100.87054,26.87436 -124.34961,87.28125 81.96161,-103.1668 162.50539,-97.82198 232.33398,-9.0918 -12.5696,-49.90725 -58.91277,-77.83739 -107.98437,-78.18945 z m 272.53711,0 c -49.0716,0.35206 -95.41477,28.2822 -107.98438,78.18945 69.82859,-88.73018 150.37238,-94.075 232.33399,9.0918 -23.47908,-60.40689 -75.27801,-87.63332 -124.34961,-87.28125 z m -292.88281,47.16601 c -43.03789,-0.34274 -82.95256,17.49919 -92.89454,59.72071 45.35768,-55.95803 143.66846,-18.93411 181.42969,24.28515 23.89904,27.35342 40.69584,-6.0378 27.14258,-28.57226 -20.50853,-34.09872 -69.86322,-55.06875 -115.67773,-55.4336 z m 313.22851,0 c -45.81452,0.36485 -95.1692,21.33488 -115.67773,55.4336 -13.55326,22.53446 3.24353,55.92568 27.14257,28.57226 37.76123,-43.21926 136.07201,-80.24318 181.42969,-24.28515 -9.94198,-42.22152 -49.85665,-60.06345 -92.89453,-59.72071 z m -192.19727,105.73047 -4.60937,1.9375 0.96875,2.30469 c 14.74451,35.05039 12.99585,62.77439 6.86719,90.1875 -6.12866,27.41312 -16.80528,54.44611 -19.55274,87.20703 -1.31882,15.72569 4.43432,26.2351 14.42969,30.91016 3.14176,1.46947 6.63285,2.87123 10.39844,3.96289 -13.59692,6.67981 -26.65086,17.9571 -38.57813,33.04101 -84.76997,15.44435 -92.60095,-23.60984 -116.16797,-51.51758 l -18.18359,1.00977 c 33.32507,67.62474 27.55149,88.90697 158.5957,86.87305 l 41.41602,-44.44532 41.41601,44.44532 c 131.04422,2.03392 125.26869,-19.24831 158.59376,-86.87305 l -18.1836,-1.00977 c -23.56702,27.90774 -31.39604,66.96193 -116.16601,51.51758 -11.57898,-15.77958 -23.74982,-26.56621 -36.10938,-32.93554 3.91309,-1.1067 7.54054,-2.54896 10.78906,-4.06836 9.99536,-4.67506 15.74656,-15.18446 14.42774,-30.91016 -2.74746,-32.76091 -13.42408,-59.79392 -19.55274,-87.20703 -6.12866,-27.41311 -7.87732,-55.13517 6.86719,-90.18555 l 0.96875,-2.30469 -4.60742,-1.93945 -0.9707,2.30469 c -15.16913,36.05979 -13.38045,65.28896 -7.13672,93.2168 6.24374,27.92784 16.77319,54.6241 19.44922,86.5332 1.20977,14.42539 -3.39397,22.14135 -11.56446,25.96289 -4.37285,2.04528 -9.98069,4.23913 -16.38867,5.19141 -13.72154,-5.03071 -27.57213,-4.7916 -41.01367,-0.0332 -6.32231,-0.96791 -11.85554,-3.13477 -16.18164,-5.1582 -8.17049,-3.82154 -12.77423,-11.5375 -11.56445,-25.96289 2.67602,-31.9091 13.20547,-58.60733 19.44921,-86.53516 6.24373,-27.92784 8.03241,-57.15505 -7.13671,-93.21484 l -0.96876,-2.30469 z m -126.84765,5.32227 c -21.03107,0.24694 -38.99663,7.23563 -52.73047,18.96484 18.83302,25.30563 137.25309,22.74452 134.34961,9.0918 -30.01195,-19.95632 -57.78393,-28.33651 -81.61914,-28.05664 z m 324.86133,0 c -23.83521,-0.27987 -51.60719,8.10032 -81.61914,28.05664 -2.90348,13.65272 115.51659,16.21383 134.34961,-9.0918 -13.73384,-11.72921 -31.69941,-18.7179 -52.73047,-18.96484 z M 566.20771,765.7634 c -0.13013,7.43837 25.74762,13.25119 116.65039,15 90.90277,-1.74881 116.78052,-7.56163 116.65039,-15 -14.41233,7.34285 -69.81073,5.57805 -116.65039,5.71484 -46.83966,-0.13679 -102.23806,1.62801 -116.65039,-5.71484 z m 71.63281,47.13281 c -0.54738,-0.0167 -1.03651,0.0769 -1.44922,0.28321 l 2.9336,0 c -0.52688,-0.1613 -1.02974,-0.26935 -1.48438,-0.28321 z m 1.48438,0.28321 c 8.98837,2.7518 27.11562,26.51656 7.84961,56.85742 -14.67047,23.10364 32.58076,134.69136 35.68359,153.75396 3.10283,-19.0626 50.35406,-130.65032 35.68359,-153.75396 -19.26601,-30.34086 -1.13877,-54.10562 7.84961,-56.85742 l -43.5332,0 -43.5332,0 z m 87.0664,0 2.9336,0 c -0.7555,-0.37775 -1.77237,-0.35551 -2.9336,0 z m -43.5332,210.61138 c -0.20734,1.2738 -0.21859,2.1358 0,2.5293 0.2186,-0.3935 0.20735,-1.2555 0,-2.5293 z"
             style="opacity:1;fill:#ffffff;fill-opacity:1;fill-rule:evenodd;stroke:none;stroke-width:5.17781353;stroke-linecap:butt;stroke-linejoin:miter;stroke-miterlimit:4;stroke-dasharray:none;stroke-opacity:1" />
        </g>
      </g>
      <text
         xml:space="preserve"
         style="font-style:normal;font-weight:normal;font-size:213.45501709px;line-height:125%;font-family:sans-serif;letter-spacing:0px;word-spacing:0px;fill:#000000;fill-opacity:1;stroke:none;stroke-width:1px;stroke-linecap:butt;stroke-linejoin:miter;stroke-opacity:1"
         x="1608.7473"
         y="256.09515"
         id="text4365"><tspan
           x="1608.7473"
           y="256.09515"
           id="tspan4369"
           style="font-style:normal;font-variant:normal;font-weight:normal;font-stretch:normal;font-family:BEYNO;-inkscape-font-specification:BEYNO;fill:#ffffff;fill-opacity:1">APPLORD</tspan><tspan
           x="1608.7473"
           y="479.91089"
           style="font-style:normal;font-variant:normal;font-weight:normal;font-stretch:normal;font-size:192.55807495px;font-family:Montserrat;-inkscape-font-specification:Montserrat;fill:#ffffff;fill-opacity:1"
           id="tspan4970">B O O T C A M P</tspan></text>
    </g>
  </g>
</svg>
