<?xml version="1.0" encoding="UTF-8" standalone="no"?>
<svg
   xmlns:dc="http://purl.org/dc/elements/1.1/"
   xmlns:cc="http://creativecommons.org/ns#"
   xmlns:rdf="http://www.w3.org/1999/02/22-rdf-syntax-ns#"
   xmlns:svg="http://www.w3.org/2000/svg"
   xmlns="http://www.w3.org/2000/svg"
   xmlns:xlink="http://www.w3.org/1999/xlink"
   version="1.1"
   id="svg2"
   viewBox="0 0 910.05176 331.57093"
   height="331.57092"
   width="910.05176">
  <defs
     id="defs4">
    <linearGradient
       id="linearGradient4796">
      <stop
         id="stop4798"
         offset="0"
         style="stop-color:#243949;stop-opacity:1" />
      <stop
         id="stop4800"
         offset="1"
         style="stop-color:#000000;stop-opacity:1" />
    </linearGradient>
    <linearGradient
       id="linearGradient4388">
      <stop
         id="stop4390"
         offset="0"
         style="stop-color:#a96b0a;stop-opacity:1" />
      <stop
         id="stop4392"
         offset="1"
         style="stop-color:#f5b857;stop-opacity:1" />
    </linearGradient>
    <linearGradient
       id="linearGradient4380">
      <stop
         id="stop4382"
         offset="0"
         style="stop-color:#f093fb;stop-opacity:1" />
      <stop
         id="stop4384"
         offset="1"
         style="stop-color:#f5576c;stop-opacity:1" />
    </linearGradient>
    <linearGradient
       gradientTransform="matrix(0.276776,0,0,0.276776,72.616491,-55.545892)"
       gradientUnits="userSpaceOnUse"
       y2="561.5769"
       x2="1110"
       y1="561.5769"
       x1="261.42856"
       id="linearGradient4386"
       xlink:href="#linearGradient4380" />
    <linearGradient
       gradientTransform="matrix(0.276776,0,0,0.276776,72.616491,-51.374542)"
       gradientUnits="userSpaceOnUse"
       y2="54.469532"
       x2="973.95764"
       y1="54.469532"
       x1="397.47089"
       id="linearGradient4394"
       xlink:href="#linearGradient4388" />
    <filter
       height="1.4150615"
       y="-0.20753074"
       width="1.5690273"
       x="-0.28451365"
       id="filter4788"
       style="color-interpolation-filters:sRGB">
      <feGaussianBlur
         id="feGaussianBlur4790"
         stdDeviation="61.791187" />
    </filter>
    <linearGradient
       gradientTransform="matrix(1,0,0,0.50000006,0,-122.40527)"
       gradientUnits="userSpaceOnUse"
       y2="1052.3622"
       x2="1200"
       y1="115.28003"
       x1="229.71234"
       id="linearGradient4802"
       xlink:href="#linearGradient4796" />
    <clipPath
       id="clipPath3387"
       clipPathUnits="userSpaceOnUse">
      <text
         id="text3389"
         y="100.61719"
         x="436.04553"
         style="font-style:normal;font-weight:normal;font-size:87.2961731px;line-height:125%;font-family:sans-serif;letter-spacing:0px;word-spacing:0px;fill:#000000;fill-opacity:1;stroke:none;stroke-width:1px;stroke-linecap:butt;stroke-linejoin:miter;stroke-opacity:1"
         xml:space="preserve"><tspan
           style="font-style:normal;font-variant:normal;font-weight:normal;font-stretch:normal;font-family:BEYNO;-inkscape-font-specification:BEYNO;fill:#ffffff;fill-opacity:1"
           id="tspan3391"
           y="100.61719"
           x="436.04553">APPLORD</tspan><tspan
           id="tspan3393"
           style="font-style:normal;font-variant:normal;font-weight:normal;font-stretch:normal;font-size:78.75px;font-family:Montserrat;-inkscape-font-specification:Montserrat;fill:#ffffff;fill-opacity:1"
           y="192.15056"
           x="436.04553">B O O T C A M P</tspan></text>
    </clipPath>
    <clipPath
       id="clipPath3414"
       clipPathUnits="userSpaceOnUse">
      <path
         style="opacity:1;fill:#ffffff;fill-opacity:1;fill-rule:evenodd;stroke:none;stroke-width:5.17781353;stroke-linecap:butt;stroke-linejoin:miter;stroke-miterlimit:4;stroke-dasharray:none;stroke-opacity:1"
         d="M 223.89909,30.735168 C 210.31725,30.637723 195.98054,38.173346 189.4821,54.892523 212.16711,26.338429 234.45969,27.817747 253.78657,52.376131 250.30761,38.563002 237.48093,30.83261 223.89909,30.735168 Z m 75.43173,0 c -13.58184,0.09744 -26.40852,7.827834 -29.88748,21.640963 19.32687,-24.558384 41.61946,-26.037702 64.30447,2.516392 -6.49845,-16.719177 -20.83515,-24.2548 -34.41699,-24.157355 z m -81.06293,13.054419 c -11.91186,-0.09486 -22.95928,4.843356 -25.71098,16.52926 12.55392,-15.48784 39.76398,-5.240508 50.21538,6.721546 6.61468,7.57077 11.26363,-1.671118 7.51242,-7.908116 -5.67627,-9.437707 -19.33647,-15.241708 -32.01682,-15.34269 z m 86.69413,0 c -12.68036,0.100982 -26.34055,5.904983 -32.01682,15.34269 -3.75121,6.236998 0.89773,15.478886 7.51241,7.908116 10.45141,-11.962054 37.66147,-22.209386 50.21539,-6.721546 -2.7517,-11.685904 -13.79913,-16.624122 -25.71098,-16.52926 z m -53.19559,29.263657 -1.27576,0.536253 0.26812,0.637883 c 4.08093,9.701107 3.59694,17.374445 1.90068,24.961736 -1.69627,7.587294 -4.6513,15.069374 -5.41173,24.136814 -0.36502,4.35249 1.22731,7.26124 3.99379,8.55519 0.86956,0.40671 1.83581,0.79469 2.87804,1.09683 -3.7633,1.84881 -7.37632,4.9701 -10.6775,9.14496 -23.4623,4.27463 -25.62972,-6.53464 -32.15251,-14.25883 l -5.03278,0.27948 c 9.22358,18.71691 7.62559,24.60732 43.89548,24.04438 l 11.46296,-12.3014 11.46296,12.3014 c 36.2699,0.56294 34.67137,-5.32747 43.89495,-24.04438 l -5.03279,-0.27948 c -6.52278,7.72419 -8.68967,18.53346 -32.15196,14.25883 -3.20478,-4.36741 -6.57338,-7.35289 -9.99421,-9.11577 1.08305,-0.3063 2.08704,-0.70549 2.98615,-1.12602 2.76648,-1.29395 4.35827,-4.20269 3.99326,-8.55519 -0.76043,-9.06743 -3.71547,-16.54952 -5.41173,-24.136814 -1.69627,-7.587291 -2.18026,-15.260092 1.90067,-24.961196 l 0.26813,-0.637883 -1.27523,-0.536793 -0.26866,0.637883 c -4.19845,9.980484 -3.70339,18.070417 -1.97528,25.800173 1.72812,7.72976 4.64242,15.11864 5.38308,23.95031 0.33484,3.9926 -0.93937,6.1282 -3.20076,7.18591 -1.2103,0.56608 -2.76242,1.17329 -4.53599,1.43686 -3.7978,-1.39238 -7.63131,-1.3262 -11.3516,-0.009 -1.74987,-0.2679 -3.28133,-0.86763 -4.47869,-1.42767 -2.2614,-1.05771 -3.5356,-3.1933 -3.20076,-7.1859 0.74065,-8.83168 3.65495,-16.22111 5.38307,-23.95086 1.72811,-7.729756 2.22318,-15.819146 -1.97527,-25.79963 l -0.26813,-0.637883 z m -35.10839,1.473076 c -5.82089,0.06835 -10.79333,2.002649 -14.59452,5.249013 5.21252,7.003991 37.98836,6.295137 37.18474,2.516392 -8.30658,-5.52343 -15.9932,-7.842866 -22.59022,-7.765405 z m 89.91382,0 c -6.59701,-0.07746 -14.28363,2.241975 -22.59021,7.765405 -0.80362,3.778745 31.97221,4.487599 37.18474,-2.516392 -3.80119,-3.246364 -8.77363,-5.180665 -14.59453,-5.249013 z m -77.24266,81.87272 c -0.036,2.05876 7.12632,3.66761 32.28602,4.15164 25.15971,-0.48403 32.32205,-2.09288 32.28603,-4.15164 -3.98898,2.03232 -19.32193,1.54387 -32.28603,1.58173 -12.96409,-0.0379 -28.29704,0.45059 -32.28602,-1.58173 z m 19.82624,13.04523 c -0.1515,-0.005 -0.28688,0.0213 -0.40111,0.0784 l 0.81195,0 c -0.14583,-0.0446 -0.28501,-0.0745 -0.41084,-0.0784 z m 0.41084,0.0784 c 2.48776,0.76163 7.50495,7.33914 2.17258,15.73676 -4.06043,6.39454 9.01758,37.27934 9.87636,42.55541 0.85879,-5.27607 13.9368,-36.16087 9.87637,-42.55541 -5.33237,-8.39762 -0.31519,-14.97513 2.17258,-15.73676 l -12.04895,0 -12.04894,0 z m 24.09789,0 0.81195,0 c -0.2091,-0.10456 -0.49055,-0.0984 -0.81195,0 z m -12.04895,58.29217 c -0.0574,0.35256 -0.0605,0.59114 0,0.70005 0.0605,-0.10891 0.0574,-0.34749 0,-0.70005 z"
         id="path3416" />
    </clipPath>
    <clipPath
       id="clipPath3445"
       clipPathUnits="userSpaceOnUse">
      <path
         id="path3447"
         d="m 236.86719,-62.00739 a 2.7679405,2.7679405 0 0 0 -2.5293,1.38281 l -23.27344,40.31055 -23.27343,-40.31055 a 2.7679405,2.7679405 0 0 0 -5.16407,1.38281 l 0,43.11133 c -21.63129,5.27078 -37.65234,24.73413 -37.65234,48.00781 l 0,136.01563 c 0,27.33318 22.09065,49.42383 49.42383,49.42383 l 136.01562,0 c 27.33318,0 49.42383,-22.09065 49.42383,-49.42383 l 0,-136.01563 c 0,-23.27434 -16.02207,-42.73769 -37.6543,-48.00781 l 0,-43.11133 a 2.7679405,2.7679405 0 0 0 -2.84961,-2.76562 2.7679405,2.7679405 0 0 0 -2.31445,1.38281 l -23.27344,40.3125 -23.27343,-40.3125 a 2.7679405,2.7679405 0 0 0 -4.79297,0 l -23.27344,40.3125 -23.27344,-40.3125 a 2.7679405,2.7679405 0 0 0 -2.26562,-1.38281 z m 51.20898,8.30078 20.87695,36.16015 -41.7539,0 20.87695,-36.16015 z m -51.33984,0.002 20.87695,36.1582 -41.7539,0 20.87695,-36.1582 z m -48.57422,4.79297 18.10937,31.36523 -11.87304,0 c -2.11456,0 -4.19232,0.14768 -6.23633,0.4043 l 0,-31.76953 z m 148.48633,0 0,31.76758 c -2.04331,-0.25644 -4.12057,-0.40235 -6.23438,-0.40235 l -11.875,0 18.10938,-31.36523 z m -142.25,36.90039 136.01562,0 c 24.36225,0 43.88867,19.52642 43.88867,43.88867 l 0,136.01563 c 0,24.36225 -19.52642,43.88867 -43.88867,43.88867 l -136.01562,0 c -24.36225,0 -43.88867,-19.52642 -43.88867,-43.88867 l 0,-136.01563 c 0,-24.36225 19.52642,-43.88867 43.88867,-43.88867 z"
         style="color:#000000;font-style:normal;font-variant:normal;font-weight:normal;font-stretch:normal;font-size:medium;line-height:normal;font-family:sans-serif;text-indent:0;text-align:start;text-decoration:none;text-decoration-line:none;text-decoration-style:solid;text-decoration-color:#000000;letter-spacing:normal;word-spacing:normal;text-transform:none;direction:ltr;block-progression:tb;writing-mode:lr-tb;baseline-shift:baseline;text-anchor:start;white-space:normal;clip-rule:nonzero;display:inline;overflow:visible;visibility:visible;opacity:1;isolation:auto;mix-blend-mode:normal;color-interpolation:sRGB;color-interpolation-filters:linearRGB;solid-color:#000000;solid-opacity:1;fill:#ffffff;fill-opacity:1;fill-rule:evenodd;stroke:none;stroke-width:5.53532743;stroke-linecap:round;stroke-linejoin:round;stroke-miterlimit:4;stroke-dasharray:none;stroke-dashoffset:0;stroke-opacity:1;color-rendering:auto;image-rendering:auto;shape-rendering:auto;text-rendering:auto;enable-background:accumulate" />
    </clipPath>
    <linearGradient
       y2="1052.3622"
       x2="1200"
       y1="115.28003"
       x1="229.71234"
       gradientTransform="matrix(1,0,0,0.50000006,0,-122.40527)"
       gradientUnits="userSpaceOnUse"
       id="linearGradient3365"
       xlink:href="#linearGradient4796" />
    <linearGradient
       y2="1052.3622"
       x2="1200"
       y1="115.28003"
       x1="229.71234"
       gradientTransform="matrix(1,0,0,0.50000006,0,-122.40527)"
       gradientUnits="userSpaceOnUse"
       id="linearGradient3367"
       xlink:href="#linearGradient4796" />
  </defs>
  <metadata
     id="metadata7">
    <rdf:RDF>
      <cc:Work
         rdf:about="">
        <dc:format>image/svg+xml</dc:format>
        <dc:type
           rdf:resource="http://purl.org/dc/dcmitype/StillImage" />
        <dc:title></dc:title>
      </cc:Work>
    </rdf:RDF>
  </metadata>
  <g
     transform="translate(-144.97461,62.010495)"
     id="layer1">
    <g
       id="g4282">
      <rect
         style="fill:url(#linearGradient3365);fill-opacity:1;fill-rule:evenodd;stroke:none;stroke-width:1px;stroke-linecap:butt;stroke-linejoin:miter;stroke-opacity:1"
         id="rect3336"
         width="1200"
         height="600"
         x="0"
         y="-196.2242"
         clip-path="url(#clipPath3387)" />
      <g
         id="g4273">
        <g
           id="g4266">
          <rect
             style="opacity:1;fill:url(#linearGradient4386);fill-opacity:1;stroke:none;stroke-width:5.53552008;stroke-linecap:square;stroke-miterlimit:4;stroke-dasharray:none;stroke-opacity:1"
             id="rect4332"
             width="229.32867"
             height="229.32867"
             x="147.74139"
             y="-14.779227"
             rx="46.656525"
             ry="46.656525" />
          <path
             style="fill:url(#linearGradient4394);fill-opacity:1;fill-rule:evenodd;stroke:none;stroke-width:5.53532743;stroke-linecap:round;stroke-linejoin:round;stroke-miterlimit:4;stroke-dasharray:none;stroke-opacity:1"
             d="m 185.39493,-14.779228 0,-44.46221 25.67027,44.46221 25.67027,-44.46221 25.67027,44.46221 25.67027,-44.46221 25.67028,44.46221 25.67027,-44.46221 0,44.46221"
             id="path4356" />
          <rect
             style="fill:url(#linearGradient3367);fill-opacity:1;fill-rule:evenodd;stroke:none;stroke-width:1px;stroke-linecap:butt;stroke-linejoin:miter;stroke-opacity:1"
             id="rect3412"
             width="1200"
             height="600"
             x="0"
             y="-196.2242"
             clip-path="url(#clipPath3445)" />
        </g>
        <g
           id="g4251">
          <path
             style="opacity:1;fill:#000000;fill-opacity:1;fill-rule:evenodd;stroke:none;stroke-width:5.17781353;stroke-linecap:butt;stroke-linejoin:miter;stroke-miterlimit:4;stroke-dasharray:none;stroke-opacity:1;filter:url(#filter4788)"
             d="m 546.58857,311.73606 c -49.0716,-0.35207 -100.87054,26.87436 -124.34961,87.28125 81.96161,-103.1668 162.50539,-97.82198 232.33398,-9.0918 -12.5696,-49.90725 -58.91277,-77.83739 -107.98437,-78.18945 z m 272.53711,0 c -49.0716,0.35206 -95.41477,28.2822 -107.98438,78.18945 69.82859,-88.73018 150.37238,-94.075 232.33399,9.0918 -23.47908,-60.40689 -75.27801,-87.63332 -124.34961,-87.28125 z m -292.88281,47.16601 c -43.03789,-0.34274 -82.95256,17.49919 -92.89454,59.72071 45.35768,-55.95803 143.66846,-18.93411 181.42969,24.28515 23.89904,27.35342 40.69584,-6.0378 27.14258,-28.57226 -20.50853,-34.09872 -69.86322,-55.06875 -115.67773,-55.4336 z m 313.22851,0 c -45.81452,0.36485 -95.1692,21.33488 -115.67773,55.4336 -13.55326,22.53446 3.24353,55.92568 27.14257,28.57226 37.76123,-43.21926 136.07201,-80.24318 181.42969,-24.28515 -9.94198,-42.22152 -49.85665,-60.06345 -92.89453,-59.72071 z m -192.19727,105.73047 -4.60937,1.9375 0.96875,2.30469 c 14.74451,35.05039 12.99585,62.77439 6.86719,90.1875 -6.12866,27.41312 -16.80528,54.44611 -19.55274,87.20703 -1.31882,15.72569 4.43432,26.2351 14.42969,30.91016 3.14176,1.46947 6.63285,2.87123 10.39844,3.96289 -13.59692,6.67981 -26.65086,17.9571 -38.57813,33.04101 -84.76997,15.44435 -92.60095,-23.60984 -116.16797,-51.51758 l -18.18359,1.00977 c 33.32507,67.62474 27.55149,88.90697 158.5957,86.87305 l 41.41602,-44.44532 41.41601,44.44532 c 131.04422,2.03392 125.26869,-19.24831 158.59376,-86.87305 l -18.1836,-1.00977 c -23.56702,27.90774 -31.39604,66.96193 -116.16601,51.51758 -11.57898,-15.77958 -23.74982,-26.56621 -36.10938,-32.93554 3.91309,-1.1067 7.54054,-2.54896 10.78906,-4.06836 9.99536,-4.67506 15.74656,-15.18446 14.42774,-30.91016 -2.74746,-32.76091 -13.42408,-59.79392 -19.55274,-87.20703 -6.12866,-27.41311 -7.87732,-55.13517 6.86719,-90.18555 l 0.96875,-2.30469 -4.60742,-1.93945 -0.9707,2.30469 c -15.16913,36.05979 -13.38045,65.28896 -7.13672,93.2168 6.24374,27.92784 16.77319,54.6241 19.44922,86.5332 1.20977,14.42539 -3.39397,22.14135 -11.56446,25.96289 -4.37285,2.04528 -9.98069,4.23913 -16.38867,5.19141 -13.72154,-5.03071 -27.57213,-4.7916 -41.01367,-0.0332 -6.32231,-0.96791 -11.85554,-3.13477 -16.18164,-5.1582 -8.17049,-3.82154 -12.77423,-11.5375 -11.56445,-25.96289 2.67602,-31.9091 13.20547,-58.60733 19.44921,-86.53516 6.24373,-27.92784 8.03241,-57.15505 -7.13671,-93.21484 l -0.96876,-2.30469 z m -126.84765,5.32227 c -21.03107,0.24694 -38.99663,7.23563 -52.73047,18.96484 18.83302,25.30563 137.25309,22.74452 134.34961,9.0918 -30.01195,-19.95632 -57.78393,-28.33651 -81.61914,-28.05664 z m 324.86133,0 c -23.83521,-0.27987 -51.60719,8.10032 -81.61914,28.05664 -2.90348,13.65272 115.51659,16.21383 134.34961,-9.0918 -13.73384,-11.72921 -31.69941,-18.7179 -52.73047,-18.96484 z M 566.20771,765.7634 c -0.13013,7.43837 25.74762,13.25119 116.65039,15 90.90277,-1.74881 116.78052,-7.56163 116.65039,-15 -14.41233,7.34285 -69.81073,5.57805 -116.65039,5.71484 -46.83966,-0.13679 -102.23806,1.62801 -116.65039,-5.71484 z m 71.63281,47.13281 c -0.54738,-0.0167 -1.03651,0.0769 -1.44922,0.28321 l 2.9336,0 c -0.52688,-0.1613 -1.02974,-0.26935 -1.48438,-0.28321 z m 1.48438,0.28321 c 8.98837,2.7518 27.11562,26.51656 7.84961,56.85742 -14.67047,23.10364 32.58076,134.69136 35.68359,153.75396 3.10283,-19.0626 50.35406,-130.65032 35.68359,-153.75396 -19.26601,-30.34086 -1.13877,-54.10562 7.84961,-56.85742 l -43.5332,0 -43.5332,0 z m 87.0664,0 2.9336,0 c -0.7555,-0.37775 -1.77237,-0.35551 -2.9336,0 z m -43.5332,210.61138 c -0.20734,1.2738 -0.21859,2.1358 0,2.5293 0.2186,-0.3935 0.20735,-1.2555 0,-2.5293 z"
             id="path4222"
             transform="matrix(0.276776,0,0,0.276776,72.616491,-55.545892)" />
          <rect
             y="-196.2242"
             x="0"
             height="600"
             width="1200"
             id="rect3385"
             style="fill:url(#linearGradient4802);fill-opacity:1;fill-rule:evenodd;stroke:none;stroke-width:1px;stroke-linecap:butt;stroke-linejoin:miter;stroke-opacity:1"
             clip-path="url(#clipPath3414)" />
        </g>
      </g>
    </g>
  </g>
</svg>
